<mxfile host="app.diagrams.net" modified="2024-02-21T09:32:22.608Z" agent="Mozilla/5.0 (Macintosh; Intel Mac OS X 10_15_7) AppleWebKit/537.36 (KHTML, like Gecko) Chrome/116.0.0.0 Safari/537.36" version="23.0.1" etag="fKTZ2pscud3sM0xX0mDD" type="github">
  <diagram name="Page-1" id="_skMu0rSGN2ggPOkqkr2">
    <mxGraphModel>
      <root>
        <mxCell id="0" />
        <mxCell id="1" parent="0" />
      </root>
    </mxGraphModel>
  </diagram>
</mxfile>
